<svg width="130" height="38" viewBox="0 0 130 38" fill="none" xmlns="http://www.w3.org/2000/svg">
<path d="M3.55966 18.9091C3.55966 18.3655 3.69224 17.87 3.95739 17.4226C4.22254 16.9751 4.57884 16.6188 5.02628 16.3537C5.47372 16.0885 5.96922 15.956 6.51278 15.956C6.9304 15.956 7.31487 16.0372 7.66619 16.1996C8.01752 16.362 8.31581 16.5857 8.56108 16.8707C8.80635 17.1558 8.98035 17.4822 9.0831 17.8501H8.44673C8.30753 17.4624 8.06558 17.1491 7.72088 16.9105C7.37618 16.6719 6.97349 16.5526 6.51278 16.5526C6.0786 16.5526 5.68253 16.6586 5.32457 16.8707C4.96993 17.0829 4.68655 17.3679 4.47443 17.7259C4.26231 18.0805 4.15625 18.4749 4.15625 18.9091C4.15625 19.3433 4.26231 19.7393 4.47443 20.0973C4.68655 20.4519 4.96993 20.7353 5.32457 20.9474C5.68253 21.1596 6.0786 21.2656 6.51278 21.2656C6.97349 21.2656 7.36956 21.1463 7.70099 20.9077C8.03575 20.669 8.27273 20.3558 8.41193 19.968H9.05327C8.94721 20.3359 8.7732 20.6624 8.53125 20.9474C8.29261 21.2325 8.00095 21.4562 7.65625 21.6186C7.31155 21.781 6.9304 21.8622 6.51278 21.8622C5.96922 21.8622 5.47372 21.7296 5.02628 21.4645C4.57884 21.1993 4.22254 20.843 3.95739 20.3956C3.69224 19.9482 3.55966 19.4527 3.55966 18.9091ZM6.40341 24.1591C5.68087 24.1591 5.00142 24.0232 4.36506 23.7514C3.73201 23.4796 3.17353 23.1035 2.68963 22.6229C2.20904 22.139 1.8312 21.5805 1.55611 20.9474C1.28433 20.3144 1.15009 19.6349 1.15341 18.9091C1.15672 18.1832 1.29427 17.5038 1.56605 16.8707C1.84115 16.2377 2.21899 15.6809 2.69957 15.2003C3.18016 14.7164 3.73698 14.3385 4.37003 14.0668C5.00308 13.795 5.68087 13.6591 6.40341 13.6591C7.12926 13.6591 7.80871 13.795 8.44176 14.0668C9.07813 14.3385 9.63494 14.7164 10.1122 15.2003C10.5928 15.6809 10.969 16.2377 11.2408 16.8707C11.5125 17.5038 11.6501 18.1832 11.6534 18.9091C11.6567 19.6349 11.5225 20.3144 11.2507 20.9474C10.9789 21.5805 10.6027 22.139 10.1222 22.6229C9.64157 23.1035 9.0831 23.4796 8.44673 23.7514C7.81037 24.0232 7.12926 24.1591 6.40341 24.1591ZM6.40341 23.5625C7.0464 23.5625 7.64962 23.4415 8.21307 23.1996C8.77983 22.9576 9.27533 22.6245 9.69957 22.2003C10.1271 21.776 10.4602 21.2822 10.6989 20.7188C10.9408 20.1553 11.0601 19.5521 11.0568 18.9091C11.0535 18.2661 10.9309 17.6629 10.6889 17.0994C10.447 16.536 10.1139 16.0421 9.68963 15.6179C9.26539 15.1903 8.77154 14.8572 8.2081 14.6186C7.64796 14.3767 7.0464 14.2557 6.40341 14.2557C5.76373 14.2557 5.16217 14.3767 4.59872 14.6186C4.03859 14.8572 3.5464 15.1903 3.12216 15.6179C2.69792 16.0455 2.36316 16.541 2.1179 17.1044C1.87595 17.6679 1.75331 18.2694 1.75 18.9091C1.74669 19.5488 1.86435 20.1503 2.10298 20.7138C2.34493 21.2739 2.67969 21.7678 3.10724 22.1953C3.5348 22.6229 4.0303 22.9576 4.59375 23.1996C5.1572 23.4415 5.76042 23.5625 6.40341 23.5625ZM41.269 15.796H45.385V16.846H41.269V15.796ZM48.283 12.506H49.361V22.908C49.361 23.636 49.487 23.776 50.089 23.776C50.397 23.776 51.797 23.776 52.161 23.776C52.805 23.776 52.903 23.174 53.001 20.85C53.267 21.06 53.715 21.27 54.009 21.34C53.883 23.902 53.603 24.812 52.231 24.812C51.937 24.812 50.257 24.812 49.977 24.812C48.675 24.812 48.283 24.392 48.283 22.88V12.506ZM44.867 12.506H45.945V25.008H44.867V12.506ZM52.847 14.662L53.617 15.572C52.329 16.566 50.537 17.63 48.955 18.498C48.871 18.26 48.661 17.896 48.507 17.672C50.061 16.818 51.797 15.628 52.847 14.662ZM40.835 22.292C41.969 21.914 43.719 21.242 45.385 20.584L45.581 21.536C44.111 22.18 42.529 22.838 41.325 23.342L40.835 22.292ZM60.771 12.184H61.877V14.802H60.771V12.184ZM60.785 15.138H61.863V25.162H60.785V15.138ZM55.073 14.186H67.687V15.208H55.073V14.186ZM56.515 17.126H65.713V18.148H57.565V23.384H56.515V17.126ZM65.307 17.126H66.385V22.054C66.385 22.656 66.245 22.978 65.783 23.16C65.293 23.328 64.509 23.342 63.305 23.342C63.263 23.02 63.095 22.6 62.941 22.306C63.893 22.334 64.747 22.334 64.985 22.32C65.237 22.306 65.307 22.25 65.307 22.054V17.126ZM69.241 16.272H81.547V17.336H69.241V16.272ZM76.059 16.692C76.969 20.08 78.873 22.908 81.785 24.112C81.519 24.35 81.169 24.798 80.987 25.092C77.963 23.664 76.059 20.71 75.009 16.944L76.059 16.692ZM74.827 12.254H75.961C75.905 15.922 75.877 22.306 69.759 25.106C69.591 24.826 69.255 24.448 68.961 24.238C74.911 21.648 74.799 15.614 74.827 12.254ZM83.241 21.494H95.505V22.362H83.241V21.494ZM85.719 19.03H92.187V19.828H85.719V19.03ZM88.841 20.71H89.877V24.028C89.877 24.574 89.765 24.84 89.303 24.98C88.883 25.12 88.155 25.134 87.035 25.134C86.979 24.854 86.825 24.49 86.685 24.238C87.539 24.266 88.337 24.252 88.561 24.238C88.785 24.224 88.841 24.182 88.841 24V20.71ZM91.949 19.03H92.201L92.425 18.974L93.055 19.506C92.131 20.248 90.773 20.976 89.611 21.438C89.485 21.27 89.233 21.004 89.093 20.878C90.115 20.486 91.333 19.772 91.949 19.212V19.03ZM83.409 17.266H95.365V19.828H94.329V18.078H84.417V19.828H83.409V17.266ZM84.249 12.856L85.551 13.178C85.523 13.248 85.439 13.304 85.271 13.332L85.537 17.672H84.571L84.249 12.856ZM93.587 12.772H94.581C94.497 14.382 94.357 16.468 94.217 17.714H93.209C93.377 16.44 93.517 14.34 93.587 12.772ZM91.291 12.772H93.979V13.5H91.291V12.772ZM86.979 12.366L87.525 12.954C86.769 13.304 85.705 13.57 84.935 13.738L84.473 13.164C85.243 13.01 86.335 12.618 86.979 12.366ZM84.865 14.27H87.413V14.984H84.865V14.27ZM84.935 15.754H87.483V16.482H84.935V15.754ZM91.347 14.27H93.867V14.984H91.347V14.27ZM91.291 15.754H93.769V16.482H91.291V15.754ZM90.017 12.38L90.759 12.604C90.115 13.444 89.079 14.242 88.141 14.76C88.015 14.62 87.707 14.368 87.539 14.242C88.491 13.78 89.457 13.108 90.017 12.38ZM87.931 12.968L88.449 12.52C89.275 12.926 90.283 13.598 90.773 14.088L90.227 14.578C89.751 14.088 88.757 13.416 87.931 12.968ZM90.157 14.704L90.913 14.928C90.255 15.81 89.149 16.65 88.183 17.182C88.057 17.056 87.749 16.79 87.567 16.664C88.561 16.188 89.583 15.474 90.157 14.704ZM88.029 15.348L88.547 14.914C89.387 15.334 90.409 16.034 90.913 16.538L90.353 17.042C89.877 16.538 88.869 15.824 88.029 15.348ZM99.285 14.97H108.987V15.992H99.285V14.97ZM98.669 19.072H108.483V20.08H98.669V19.072ZM97.143 23.65H109.645V24.672H97.143V23.65ZM102.855 12.254H103.933V24.168H102.855V12.254ZM99.705 12.478L100.783 12.716C100.167 14.886 99.187 16.958 98.067 18.302C97.857 18.12 97.381 17.812 97.115 17.672C98.263 16.426 99.173 14.48 99.705 12.478ZM113.551 17.028V19.142H121.237V17.028H113.551ZM112.655 16.314H122.189V19.856H112.655V16.314ZM114.951 14.802H119.837V15.544H114.951V14.802ZM116.869 16.538H117.765V19.464H116.869V16.538ZM117.303 13.094C116.057 14.368 113.719 15.796 111.395 16.664C111.269 16.426 111.031 16.062 110.835 15.838C113.215 15.026 115.581 13.598 116.743 12.24H117.737C119.319 13.766 121.755 15.054 123.925 15.698C123.701 15.922 123.463 16.3 123.309 16.566C121.251 15.852 118.731 14.466 117.303 13.094ZM114.405 17.448L115.161 17.196C115.525 17.686 115.861 18.344 116.001 18.792L115.189 19.086C115.077 18.638 114.755 17.952 114.405 17.448ZM119.445 17.14L120.341 17.42C120.019 18.022 119.669 18.666 119.389 19.086L118.647 18.834C118.913 18.358 119.277 17.616 119.445 17.14ZM113.481 20.528H121.391V25.106H120.327V21.27H114.517V25.12H113.481V20.528ZM114.097 22.208H120.789V22.978H114.097V22.208ZM114.097 23.93H120.789V24.686H114.097V23.93Z" fill="black"/>
<mask id="mask0_9_125" style="mask-type:luminance" maskUnits="userSpaceOnUse" x="16" y="12" width="12" height="14">
<path d="M16.4867 12.8883H27.3483V25.1117H16.4867V12.8883Z" fill="white"/>
</mask>
<g mask="url(#mask0_9_125)">
<mask id="mask1_9_125" style="mask-type:luminance" maskUnits="userSpaceOnUse" x="16" y="12" width="12" height="14">
<path d="M17.1638 13.1644C16.7046 13.2427 16.7046 13.2427 16.7046 13.6704V24.8694C16.8865 24.8111 17.0231 24.7669 17.1638 24.7217V13.1644ZM17.3693 24.7001H27.1129V13.1052H17.3693V24.7001ZM16.5192 24.6268L16.5143 13.4759C16.5138 13.2066 16.5755 13.0589 16.8518 13.0263C17.1392 12.9921 17.425 12.9117 17.7119 12.9107L26.9608 12.8976C27.2622 12.8966 27.3335 12.9785 27.3325 13.2729V24.5705C27.333 24.8293 27.2486 24.9448 27.009 24.977C26.7025 25.0177 26.3961 25.0955 26.0896 25.0965L16.8699 25.0991" fill="white"/>
</mask>
<g mask="url(#mask1_9_125)">
<path d="M16.263 12.6465H27.5839V25.3382H16.263V12.6465Z" fill="black"/>
</g>
</g>
<mask id="mask2_9_125" style="mask-type:luminance" maskUnits="userSpaceOnUse" x="16" y="13" width="2" height="12">
<path d="M16.6767 13.1417H17.1833V24.89H16.6767V13.1417Z" fill="white"/>
</mask>
<g mask="url(#mask2_9_125)">
<mask id="mask3_9_125" style="mask-type:luminance" maskUnits="userSpaceOnUse" x="16" y="13" width="2" height="12">
<path d="M17.1638 13.1644V24.7217C17.0231 24.7669 16.8865 24.8111 16.7046 24.8693V13.6704C16.7046 13.2427 16.7046 13.2427 17.1638 13.1644Z" fill="white"/>
</mask>
<g mask="url(#mask3_9_125)">
<path d="M16.263 12.6465H27.5838V25.3382H16.263V12.6465Z" fill="black"/>
</g>
</g>
<mask id="mask4_9_125" style="mask-type:luminance" maskUnits="userSpaceOnUse" x="19" y="14" width="8" height="10">
<path d="M19.3144 14.5983H26.2083V23.37H19.3144V14.5983Z" fill="white"/>
</mask>
<g mask="url(#mask4_9_125)">
<mask id="mask5_9_125" style="mask-type:luminance" maskUnits="userSpaceOnUse" x="19" y="14" width="8" height="10">
<path d="M19.5788 14.7831C19.836 17.3251 20.0907 19.8405 20.3454 22.3539H26.0308C25.7742 19.82 25.5195 17.3051 25.2637 14.7831H19.5788ZM19.3311 14.6172H25.4184C25.5104 15.5035 25.6014 16.3705 25.6903 17.2377L26.1454 21.6944C26.1665 21.9028 26.1982 22.1114 26.1997 22.3203C26.2002 22.4132 26.1629 22.5277 26.1022 22.5966C25.434 23.3522 25.432 23.3502 24.4242 23.3502H19.6782C19.3311 23.3502 19.3306 23.3497 19.3306 23.0156V14.9136L19.3311 14.6172Z" fill="white"/>
</mask>
<g mask="url(#mask5_9_125)">
<path d="M16.263 12.6465H27.5839V25.3381H16.263V12.6465Z" fill="black"/>
</g>
</g>
<mask id="mask6_9_125" style="mask-type:luminance" maskUnits="userSpaceOnUse" x="16" y="23" width="2" height="3">
<path d="M16.5203 23.2161H17.2125V25.1025H16.5203V23.2161Z" fill="white"/>
</mask>
<g mask="url(#mask6_9_125)">
<path d="M16.263 12.6465H27.5838V25.3382H16.263V12.6465Z" fill="black"/>
</g>
<mask id="mask7_9_125" style="mask-type:luminance" maskUnits="userSpaceOnUse" x="28" y="13" width="10" height="12">
<path d="M28.6437 13.395H37.7667V24.8583H28.6437V13.395Z" fill="white"/>
</mask>
<g mask="url(#mask7_9_125)">
<mask id="mask8_9_125" style="mask-type:luminance" maskUnits="userSpaceOnUse" x="28" y="13" width="10" height="12">
<path d="M28.6437 13.4155V24.8301H30.6451V16.9854C30.7346 17.1156 30.7792 17.1779 30.8215 17.2422L35.6454 24.6402C35.6991 24.7226 35.789 24.8393 35.8649 24.8412C36.4858 24.8573 37.1072 24.8503 37.7372 24.8503V13.4332H35.7368V21.315C35.6327 21.1648 35.5765 21.0879 35.5248 21.0081L30.7224 13.6311C30.6653 13.5432 30.5613 13.4276 30.4758 13.4252C29.8735 13.407 29.2701 13.4155 28.6437 13.4155Z" fill="white"/>
</mask>
<g mask="url(#mask8_9_125)">
<path d="M28.6437 13.4137H37.737V24.8515H28.6437V13.4137Z" fill="black"/>
</g>
</g>
<mask id="mask9_9_125" style="mask-type:luminance" maskUnits="userSpaceOnUse" x="16" y="13" width="2" height="12">
<path d="M16.6289 13.1318H17.1833V24.7H16.6289V13.1318Z" fill="white"/>
</mask>
<g mask="url(#mask9_9_125)">
<path d="M16.6289 13.1318H17.1833V24.6993H16.6289V13.1318Z" fill="black"/>
</g>
</svg>
