<svg width="72" height="69" viewBox="0 0 72 69" fill="none" xmlns="http://www.w3.org/2000/svg">
<mask id="mask0_5_4" style="mask-type:luminance" maskUnits="userSpaceOnUse" x="16" y="21" width="21" height="24">
<path d="M16.08 21.42H36.66V44.58H16.08V21.42Z" fill="white"/>
</mask>
<g mask="url(#mask0_5_4)">
<mask id="mask1_5_4" style="mask-type:luminance" maskUnits="userSpaceOnUse" x="16" y="21" width="21" height="24">
<path d="M17.363 21.9431C16.493 22.0915 16.493 22.0915 16.493 22.9017V44.1209C16.8375 44.0105 17.0965 43.9268 17.363 43.841V21.9431ZM17.7523 43.8002H36.214V21.8309H17.7523V43.8002ZM16.1416 43.6613L16.1323 22.5333C16.1313 22.023 16.2483 21.7432 16.7719 21.6813C17.3163 21.6166 17.858 21.4643 18.4015 21.4624L35.9257 21.4376C36.4969 21.4357 36.6319 21.5909 36.63 22.1487V43.5546C36.6309 44.0449 36.4711 44.2638 36.0171 44.3248C35.4363 44.4019 34.8558 44.5493 34.275 44.5512L16.8061 44.5561" fill="white"/>
</mask>
<g mask="url(#mask1_5_4)">
<path d="M15.6562 20.9618H37.1063V45.0091H15.6562V20.9618Z" fill="black"/>
</g>
</g>
<mask id="mask2_5_4" style="mask-type:luminance" maskUnits="userSpaceOnUse" x="16" y="21" width="2" height="24">
<path d="M16.44 21.9H17.4V44.16H16.44V21.9Z" fill="white"/>
</mask>
<g mask="url(#mask2_5_4)">
<mask id="mask3_5_4" style="mask-type:luminance" maskUnits="userSpaceOnUse" x="16" y="21" width="2" height="24">
<path d="M17.363 21.9431V43.841C17.0965 43.9268 16.8375 44.0105 16.493 44.1209V22.9017C16.493 22.0915 16.493 22.0915 17.363 21.9431Z" fill="white"/>
</mask>
<g mask="url(#mask3_5_4)">
<path d="M15.6563 20.9618H37.1063V45.0091H15.6563V20.9618Z" fill="black"/>
</g>
</g>
<mask id="mask4_5_4" style="mask-type:luminance" maskUnits="userSpaceOnUse" x="21" y="24" width="14" height="18">
<path d="M21.4378 24.66H34.5V41.28H21.4378V24.66Z" fill="white"/>
</mask>
<g mask="url(#mask4_5_4)">
<mask id="mask5_5_4" style="mask-type:luminance" maskUnits="userSpaceOnUse" x="21" y="24" width="14" height="18">
<path d="M21.9387 25.0102C22.4262 29.8266 22.9088 34.5926 23.3913 39.3548H34.1637C33.6774 34.5537 33.1948 29.7886 32.7101 25.0102H21.9387ZM21.4695 24.6959H33.0033C33.1777 26.3752 33.3499 28.0179 33.5184 29.6609L34.3807 38.1052C34.4208 38.5001 34.4808 38.8952 34.4836 39.2911C34.4845 39.4671 34.414 39.6841 34.2989 39.8147C33.0328 41.2463 33.0291 41.2425 31.1196 41.2425H22.1271C21.4695 41.2425 21.4685 41.2416 21.4685 40.6085V25.2574L21.4695 24.6959Z" fill="white"/>
</mask>
<g mask="url(#mask5_5_4)">
<path d="M15.6563 20.9618H37.1063V45.0091H15.6563V20.9618Z" fill="black"/>
</g>
</g>
<mask id="mask6_5_4" style="mask-type:luminance" maskUnits="userSpaceOnUse" x="16" y="40" width="2" height="5">
<path d="M16.1438 40.9884H17.4553V44.5627H16.1438V40.9884Z" fill="white"/>
</mask>
<g mask="url(#mask6_5_4)">
<path d="M15.6562 20.9618H37.1063V45.0091H15.6562V20.9618Z" fill="black"/>
</g>
<mask id="mask7_5_4" style="mask-type:luminance" maskUnits="userSpaceOnUse" x="39" y="22" width="18" height="23">
<path d="M39.1144 22.38H56.4V44.1H39.1144V22.38Z" fill="white"/>
</mask>
<g mask="url(#mask7_5_4)">
<mask id="mask8_5_4" style="mask-type:luminance" maskUnits="userSpaceOnUse" x="39" y="22" width="18" height="23">
<path d="M39.1144 22.4189V44.0466H42.9066V29.183C43.076 29.4295 43.1606 29.5477 43.2408 29.6695L52.3807 43.6868C52.4824 43.8429 52.6528 44.0639 52.7967 44.0677C53.9731 44.0981 55.1506 44.0848 56.3442 44.0848V22.4524H52.5539V37.3863C52.3568 37.1018 52.2502 36.956 52.1522 36.8049L43.0531 22.8274C42.9448 22.6608 42.7477 22.4419 42.5857 22.4372C41.4445 22.4028 40.3013 22.4189 39.1144 22.4189Z" fill="white"/>
</mask>
<g mask="url(#mask8_5_4)">
<path d="M39.1144 22.4153H56.3438V44.0868H39.1144V22.4153Z" fill="black"/>
</g>
</g>
<mask id="mask9_5_4" style="mask-type:luminance" maskUnits="userSpaceOnUse" x="16" y="21" width="2" height="23">
<path d="M16.3495 21.8813H17.4V43.8H16.3495V21.8813Z" fill="white"/>
</mask>
<g mask="url(#mask9_5_4)">
<path d="M16.3495 21.8813H17.4V43.7986H16.3495V21.8813Z" fill="black"/>
</g>
</svg>
