<svg width="216" height="69" viewBox="0 0 216 69" fill="none" xmlns="http://www.w3.org/2000/svg">
<mask id="mask0_7_105" style="mask-type:luminance" maskUnits="userSpaceOnUse" x="16" y="21" width="21" height="24">
<path d="M16.08 21.42H36.66V44.58H16.08V21.42Z" fill="white"/>
</mask>
<g mask="url(#mask0_7_105)">
<mask id="mask1_7_105" style="mask-type:luminance" maskUnits="userSpaceOnUse" x="16" y="21" width="21" height="24">
<path d="M17.363 21.9431C16.493 22.0915 16.493 22.0915 16.493 22.9017V44.1209C16.8375 44.0105 17.0965 43.9268 17.363 43.841V21.9431ZM17.7523 43.8002H36.214V21.8309H17.7523V43.8002ZM16.1416 43.6613L16.1323 22.5333C16.1313 22.023 16.2483 21.7432 16.7719 21.6813C17.3163 21.6166 17.858 21.4643 18.4015 21.4624L35.9257 21.4376C36.4969 21.4357 36.6319 21.5909 36.63 22.1487V43.5546C36.6309 44.0449 36.4711 44.2638 36.0171 44.3248C35.4363 44.4019 34.8558 44.5493 34.275 44.5512L16.8061 44.5561" fill="white"/>
</mask>
<g mask="url(#mask1_7_105)">
<path d="M15.6562 20.9618H37.1063V45.0091H15.6562V20.9618Z" fill="black"/>
</g>
</g>
<mask id="mask2_7_105" style="mask-type:luminance" maskUnits="userSpaceOnUse" x="16" y="21" width="2" height="24">
<path d="M16.44 21.9H17.4V44.16H16.44V21.9Z" fill="white"/>
</mask>
<g mask="url(#mask2_7_105)">
<mask id="mask3_7_105" style="mask-type:luminance" maskUnits="userSpaceOnUse" x="16" y="21" width="2" height="24">
<path d="M17.363 21.9431V43.841C17.0965 43.9268 16.8375 44.0105 16.493 44.1209V22.9017C16.493 22.0915 16.493 22.0915 17.363 21.9431Z" fill="white"/>
</mask>
<g mask="url(#mask3_7_105)">
<path d="M15.6563 20.9618H37.1063V45.0091H15.6563V20.9618Z" fill="black"/>
</g>
</g>
<mask id="mask4_7_105" style="mask-type:luminance" maskUnits="userSpaceOnUse" x="21" y="24" width="14" height="18">
<path d="M21.4378 24.66H34.5V41.28H21.4378V24.66Z" fill="white"/>
</mask>
<g mask="url(#mask4_7_105)">
<mask id="mask5_7_105" style="mask-type:luminance" maskUnits="userSpaceOnUse" x="21" y="24" width="14" height="18">
<path d="M21.9387 25.0102C22.4262 29.8266 22.9088 34.5926 23.3913 39.3548H34.1637C33.6774 34.5537 33.1948 29.7886 32.7101 25.0102H21.9387ZM21.4695 24.6959H33.0033C33.1777 26.3752 33.3499 28.0179 33.5184 29.6609L34.3807 38.1052C34.4208 38.5001 34.4808 38.8952 34.4836 39.2911C34.4845 39.4671 34.414 39.6841 34.2989 39.8147C33.0328 41.2463 33.0291 41.2425 31.1196 41.2425H22.1271C21.4695 41.2425 21.4685 41.2416 21.4685 40.6085V25.2574L21.4695 24.6959Z" fill="white"/>
</mask>
<g mask="url(#mask5_7_105)">
<path d="M15.6563 20.9618H37.1063V45.0091H15.6563V20.9618Z" fill="black"/>
</g>
</g>
<mask id="mask6_7_105" style="mask-type:luminance" maskUnits="userSpaceOnUse" x="16" y="40" width="2" height="5">
<path d="M16.1438 40.9884H17.4553V44.5627H16.1438V40.9884Z" fill="white"/>
</mask>
<g mask="url(#mask6_7_105)">
<path d="M15.6562 20.9618H37.1063V45.0091H15.6562V20.9618Z" fill="black"/>
</g>
<mask id="mask7_7_105" style="mask-type:luminance" maskUnits="userSpaceOnUse" x="39" y="22" width="18" height="23">
<path d="M39.1144 22.38H56.4V44.1H39.1144V22.38Z" fill="white"/>
</mask>
<g mask="url(#mask7_7_105)">
<mask id="mask8_7_105" style="mask-type:luminance" maskUnits="userSpaceOnUse" x="39" y="22" width="18" height="23">
<path d="M39.1144 22.4189V44.0466H42.9066V29.183C43.076 29.4295 43.1606 29.5477 43.2408 29.6695L52.3807 43.6868C52.4824 43.8429 52.6528 44.0639 52.7967 44.0677C53.9731 44.0981 55.1506 44.0848 56.3442 44.0848V22.4524H52.5539V37.3863C52.3568 37.1018 52.2502 36.956 52.1522 36.8049L43.0531 22.8274C42.9448 22.6608 42.7477 22.4419 42.5857 22.4372C41.4445 22.4028 40.3013 22.4189 39.1144 22.4189Z" fill="white"/>
</mask>
<g mask="url(#mask8_7_105)">
<path d="M39.1144 22.4153H56.3438V44.0868H39.1144V22.4153Z" fill="black"/>
</g>
</g>
<mask id="mask9_7_105" style="mask-type:luminance" maskUnits="userSpaceOnUse" x="16" y="21" width="2" height="23">
<path d="M16.3495 21.8813H17.4V43.8H16.3495V21.8813Z" fill="white"/>
</mask>
<g mask="url(#mask9_7_105)">
<path d="M16.3495 21.8813H17.4V43.7986H16.3495V21.8813Z" fill="black"/>
</g>
<path d="M74.016 24.432H88.752V26.88H74.016V24.432ZM73.152 29.232H89.376V31.824H73.152V29.232ZM76.872 21.816H79.656V30.648H76.872V21.816ZM82.896 21.816H85.752V30.648H82.896V21.816ZM75.408 33.192H87.576V44.16H84.672V35.544H78.168V44.256H75.408V33.192ZM76.752 37.176H86.064V39.336H76.752V37.176ZM76.752 41.04H86.064V43.368H76.752V41.04ZM71.688 21.72L74.4 22.56C72.84 26.664 70.344 30.984 67.728 33.72C67.464 33.024 66.696 31.44 66.192 30.744C68.376 28.56 70.464 25.152 71.688 21.72ZM69.36 28.344L72.096 25.608L72.12 25.632V44.136H69.36V28.344ZM96.24 23.232H110.976V25.968H96.24V23.232ZM96.24 28.752H111.024V31.44H96.24V28.752ZM96.192 34.416H111.12V37.128H96.192V34.416ZM94.584 23.232H97.44V31.872C97.44 35.688 96.96 41.088 94.008 44.304C93.552 43.752 92.376 42.792 91.752 42.432C94.368 39.528 94.584 35.232 94.584 31.848V23.232ZM109.968 23.232H112.824V40.776C112.824 42.312 112.488 43.08 111.528 43.536C110.52 43.992 109.08 44.04 106.896 44.016C106.776 43.248 106.344 42 105.96 41.256C107.328 41.352 108.912 41.328 109.344 41.328C109.8 41.304 109.968 41.16 109.968 40.752V23.232ZM101.976 24.312H104.904V43.872H101.976V24.312ZM117.576 22.632H125.232V25.128H117.576V22.632ZM117.024 30.36H126.144V32.904H117.024V30.36ZM120.6 31.752H123.36V41.088C123.36 42.408 123.144 43.176 122.232 43.608C121.368 44.064 120.168 44.112 118.536 44.112C118.44 43.296 118.056 42.12 117.672 41.352C118.704 41.376 119.832 41.376 120.168 41.376C120.504 41.376 120.6 41.304 120.6 41.016V31.752ZM124.368 22.632H124.968L125.496 22.488L127.248 23.736C126.072 25.632 124.368 27.816 122.832 29.184C122.448 28.68 121.704 27.888 121.224 27.48C122.424 26.352 123.768 24.432 124.368 23.16V22.632ZM125.304 30.36H125.664L126.048 30.264L127.824 30.672C127.32 32.688 126.648 34.944 126.12 36.384L123.984 35.904C124.416 34.608 124.968 32.448 125.304 30.696V30.36ZM118.008 27.84L119.448 25.944C121.416 26.856 123.96 28.32 125.184 29.472L123.624 31.608C122.472 30.408 120 28.824 118.008 27.84ZM127.128 22.56H139.416V24.984H127.128V22.56ZM130.584 32.184V33.72H135.936V32.184H130.584ZM130.584 35.688V37.224H135.936V35.688H130.584ZM130.584 28.704V30.216H135.936V28.704H130.584ZM127.944 26.592H138.696V39.336H127.944V26.592ZM131.808 23.88L135.096 24.24C134.64 25.752 134.136 27.264 133.728 28.296L131.232 27.84C131.472 26.688 131.736 25.056 131.808 23.88ZM130.296 39.36L132.648 40.896C131.328 42.168 129.048 43.512 127.176 44.232C126.72 43.704 125.88 42.84 125.256 42.36C127.128 41.688 129.24 40.392 130.296 39.36ZM133.776 40.968L135.912 39.528C137.256 40.392 139.08 41.712 140.016 42.624L137.76 44.232C136.92 43.344 135.144 41.928 133.776 40.968ZM153.432 32.496L155.736 31.32C156.984 32.976 158.352 35.208 158.88 36.744L156.36 38.04C155.928 36.552 154.656 34.224 153.432 32.496ZM154.224 25.704H162.84V28.416H154.224V25.704ZM161.616 25.704H164.4C164.4 25.704 164.4 26.664 164.376 27.024C164.016 37.608 163.704 41.424 162.696 42.696C162.024 43.608 161.376 43.872 160.368 44.04C159.48 44.16 158.016 44.16 156.6 44.088C156.552 43.272 156.168 42.024 155.64 41.208C157.152 41.328 158.544 41.328 159.168 41.328C159.648 41.328 159.936 41.256 160.2 40.92C160.992 40.104 161.328 36.048 161.616 26.28V25.704ZM154.368 21.6L157.344 22.248C156.336 25.824 154.68 29.352 152.856 31.536C152.28 31.056 151.008 30.192 150.288 29.784C152.112 27.888 153.576 24.744 154.368 21.6ZM145.92 21.648L148.464 22.536C147.48 24.408 146.352 26.544 145.416 27.864L143.472 27.072C144.336 25.632 145.368 23.328 145.92 21.648ZM148.8 24.48L151.224 25.488C149.448 28.248 147.096 31.584 145.248 33.624L143.496 32.736C145.344 30.576 147.528 27.048 148.8 24.48ZM142.224 27.336L143.568 25.344C144.864 26.448 146.352 27.984 146.976 29.04L145.512 31.296C144.912 30.144 143.448 28.488 142.224 27.336ZM148.2 30.264L150.24 29.376C151.2 30.984 152.16 33.072 152.472 34.464L150.288 35.472C150 34.104 149.112 31.92 148.2 30.264ZM142.2 32.208C144.432 32.136 147.744 31.992 150.96 31.824V34.104C147.936 34.344 144.816 34.56 142.44 34.704L142.2 32.208ZM148.632 36.288L150.744 35.592C151.368 37.032 152.016 38.904 152.304 40.128L150.048 40.944C149.832 39.696 149.208 37.752 148.632 36.288ZM143.232 35.736L145.608 36.144C145.368 38.448 144.84 40.848 144.144 42.384C143.64 42.072 142.56 41.568 141.96 41.328C142.656 39.912 143.04 37.776 143.232 35.736ZM146.016 33.48H148.584V44.184H146.016V33.48ZM169.176 23.112H188.352V25.968H169.176V23.112ZM167.88 33.288H189.744V36.192H167.88V33.288ZM170.616 27.504L173.232 26.736C174.072 28.272 174.912 30.312 175.176 31.632L172.392 32.52C172.152 31.224 171.384 29.112 170.616 27.504ZM184.296 26.664L187.368 27.456C186.504 29.28 185.52 31.248 184.728 32.496L182.208 31.752C182.952 30.36 183.84 28.248 184.296 26.664ZM177.264 24.312H180.264V44.136H177.264V24.312ZM197.256 40.392H210.504V43.176H197.256V40.392ZM195.96 33.504H212.016V44.136H208.92V36.264H198.912V44.136H195.96V33.504ZM200.664 21.432L203.952 22.512C202.392 25.488 200.352 28.704 198.72 30.792L196.128 29.76C197.736 27.576 199.632 24.12 200.664 21.432ZM206.424 25.728L208.704 24.048C211.08 25.968 213.96 28.752 215.208 30.816L212.688 32.736C211.56 30.72 208.824 27.792 206.424 25.728ZM193.416 28.416C198.264 28.296 205.704 28.008 212.304 27.72L212.16 30.504C205.512 30.864 198.312 31.152 193.584 31.344L193.416 28.416Z" fill="black"/>
</svg>
