<svg width="72" height="72" viewBox="0 0 72 72" fill="none" xmlns="http://www.w3.org/2000/svg">
<mask id="mask0_66_342" style="mask-type:luminance" maskUnits="userSpaceOnUse" x="16" y="24" width="21" height="24">
<path d="M16.08 24.42H36.66V47.58H16.08V24.42Z" fill="white"/>
</mask>
<g mask="url(#mask0_66_342)">
<mask id="mask1_66_342" style="mask-type:luminance" maskUnits="userSpaceOnUse" x="16" y="24" width="21" height="24">
<path d="M17.3629 24.9431C16.4929 25.0915 16.4929 25.0915 16.4929 25.9017V47.1209C16.8374 47.0105 17.0964 46.9268 17.3629 46.841V24.9431ZM17.7522 46.8002H36.2139V24.8309H17.7522V46.8002ZM16.1416 46.6613L16.1322 25.5333C16.1313 25.023 16.2482 24.7432 16.7718 24.6813C17.3163 24.6166 17.8579 24.4643 18.4014 24.4624L35.9256 24.4376C36.4968 24.4357 36.6318 24.5909 36.6299 25.1487V46.5546C36.6309 47.0449 36.471 47.2638 36.0171 47.3248C35.4363 47.4019 34.8557 47.5493 34.2749 47.5512L16.806 47.5561" fill="white"/>
</mask>
<g mask="url(#mask1_66_342)">
<path d="M15.6562 23.9618H37.1063V48.0091H15.6562V23.9618Z" fill="black"/>
</g>
</g>
<mask id="mask2_66_342" style="mask-type:luminance" maskUnits="userSpaceOnUse" x="16" y="24" width="2" height="24">
<path d="M16.4399 24.9H17.3999V47.16H16.4399V24.9Z" fill="white"/>
</mask>
<g mask="url(#mask2_66_342)">
<mask id="mask3_66_342" style="mask-type:luminance" maskUnits="userSpaceOnUse" x="16" y="24" width="2" height="24">
<path d="M17.3629 24.9431V46.841C17.0964 46.9268 16.8375 47.0105 16.4929 47.1209V25.9017C16.4929 25.0915 16.4929 25.0915 17.3629 24.9431Z" fill="white"/>
</mask>
<g mask="url(#mask3_66_342)">
<path d="M15.6562 23.9618H37.1063V48.0091H15.6562V23.9618Z" fill="black"/>
</g>
</g>
<mask id="mask4_66_342" style="mask-type:luminance" maskUnits="userSpaceOnUse" x="21" y="27" width="14" height="18">
<path d="M21.4379 27.66H34.5001V44.28H21.4379V27.66Z" fill="white"/>
</mask>
<g mask="url(#mask4_66_342)">
<mask id="mask5_66_342" style="mask-type:luminance" maskUnits="userSpaceOnUse" x="21" y="27" width="14" height="18">
<path d="M21.9388 28.0102C22.4263 32.8266 22.9089 37.5926 23.3914 42.3548H34.1638C33.6775 37.5537 33.1949 32.7886 32.7102 28.0102H21.9388ZM21.4696 27.6959H33.0034C33.1778 29.3752 33.35 31.0179 33.5185 32.6609L34.3808 41.1052C34.4209 41.5001 34.4809 41.8952 34.4837 42.2911C34.4846 42.4671 34.4141 42.6841 34.299 42.8147C33.0329 44.2463 33.0292 44.2425 31.1197 44.2425H22.1272C21.4696 44.2425 21.4686 44.2416 21.4686 43.6085V28.2574L21.4696 27.6959Z" fill="white"/>
</mask>
<g mask="url(#mask5_66_342)">
<path d="M15.6564 23.9618H37.1064V48.0091H15.6564V23.9618Z" fill="black"/>
</g>
</g>
<mask id="mask6_66_342" style="mask-type:luminance" maskUnits="userSpaceOnUse" x="16" y="43" width="2" height="5">
<path d="M16.1438 43.9884H17.4554V47.5627H16.1438V43.9884Z" fill="white"/>
</mask>
<g mask="url(#mask6_66_342)">
<path d="M15.6562 23.9618H37.1063V48.0091H15.6562V23.9618Z" fill="black"/>
</g>
<mask id="mask7_66_342" style="mask-type:luminance" maskUnits="userSpaceOnUse" x="39" y="25" width="18" height="23">
<path d="M39.1144 25.38H56.4V47.1H39.1144V25.38Z" fill="white"/>
</mask>
<g mask="url(#mask7_66_342)">
<mask id="mask8_66_342" style="mask-type:luminance" maskUnits="userSpaceOnUse" x="39" y="25" width="18" height="23">
<path d="M39.1144 25.4189V47.0466H42.9066V32.183C43.076 32.4295 43.1606 32.5477 43.2408 32.6695L52.3807 46.6868C52.4824 46.8429 52.6528 47.0639 52.7967 47.0677C53.9731 47.0981 55.1506 47.0848 56.3442 47.0848V25.4524H52.5539V40.3863C52.3568 40.1018 52.2502 39.956 52.1522 39.8049L43.0531 25.8274C42.9448 25.6608 42.7477 25.4419 42.5857 25.4372C41.4445 25.4028 40.3013 25.4189 39.1144 25.4189Z" fill="white"/>
</mask>
<g mask="url(#mask8_66_342)">
<path d="M39.1144 25.4153H56.3438V47.0868H39.1144V25.4153Z" fill="black"/>
</g>
</g>
<mask id="mask9_66_342" style="mask-type:luminance" maskUnits="userSpaceOnUse" x="16" y="24" width="2" height="23">
<path d="M16.3495 24.8813H17.4V46.8H16.3495V24.8813Z" fill="white"/>
</mask>
<g mask="url(#mask9_66_342)">
<path d="M16.3495 24.8813H17.4V46.7986H16.3495V24.8813Z" fill="black"/>
</g>
</svg>
